<?xml version="1.0" encoding="iso-8859-1"?>
<!-- Generator: Adobe Illustrator 19.0.0, SVG Export Plug-In . SVG Version: 6.00 Build 0)  -->
<svg version="1.1" id="Layer_1" xmlns="http://www.w3.org/2000/svg" xmlns:xlink="http://www.w3.org/1999/xlink" x="0px" y="0px"
	 viewBox="0 0 512 512" style="enable-background:new 0 0 512 512;" xml:space="preserve">
<path style="fill:#EB7830;" d="M322.859,89.578l-57.363,71.809c-4.866,6.091-14.127,6.091-18.992,0l-57.363-71.809
	c-6.358-7.959-0.691-19.739,9.496-19.739h28.89V21.623c0-6.32,5.125-11.445,11.445-11.445h34.056c6.32,0,11.445,5.125,11.445,11.445
	v48.215h28.89C323.55,69.838,329.217,81.618,322.859,89.578z"/>
<g>
	<path style="fill:#3E81C8;" d="M385.767,247.377H126.233c-11.242,0-20.356-9.113-20.356-20.356l0,0
		c0-11.242,9.113-20.356,20.356-20.356h259.533c11.242,0,20.356,9.113,20.356,20.356l0,0
		C406.122,238.264,397.009,247.377,385.767,247.377z"/>
	<path style="fill:#3E81C8;" d="M329.789,501.821H182.211c-11.242,0-20.356-9.113-20.356-20.356V461.11h188.289v20.356
		C350.144,492.708,341.031,501.821,329.789,501.821z"/>
</g>
<polygon style="fill:#EFEFEF;" points="350.144,461.11 161.856,461.11 136.411,247.377 375.589,247.377 "/>
<g>
	<path style="fill:#231F20;" d="M238.552,167.74c4.261,5.334,10.622,8.394,17.449,8.394c6.827,0,13.187-3.059,17.449-8.394
		l57.363-71.81c5.404-6.766,6.428-15.816,2.675-23.62c-3.754-7.802-11.465-12.65-20.122-12.65h-18.713V21.623
		C294.651,9.699,284.952,0,273.028,0h-34.056c-11.923,0-21.623,9.699-21.623,21.623V59.66h-18.712
		c-8.659,0-16.371,4.848-20.123,12.651c-3.754,7.803-2.729,16.853,2.676,23.619L238.552,167.74z M196.857,81.135
		c0.358-0.742,0.957-1.12,1.781-1.12h28.89c5.62,0,10.178-4.558,10.178-10.178V21.623c0-0.699,0.569-1.267,1.267-1.267h34.056
		c0.699,0,1.267,0.569,1.267,1.267v48.215c0,5.62,4.558,10.178,10.178,10.178h28.891c0.824,0,1.423,0.377,1.78,1.12
		c0.358,0.743,0.278,1.446-0.236,2.091l-57.363,71.81c-0.49,0.614-1.11,0.742-1.544,0.742c-0.434,0-1.053-0.129-1.544-0.742
		l-57.362-71.81C196.58,82.581,196.5,81.877,196.857,81.135z"/>
	<path style="fill:#231F20;" d="M385.767,196.489H126.233c-16.836,0-30.533,13.697-30.533,30.533s13.697,30.533,30.533,30.533h1.14
		l24.305,204.157v19.754c0,16.836,13.697,30.533,30.533,30.533h147.578c16.836,0,30.533-13.697,30.533-30.533v-19.754
		l24.305-204.157h1.14c16.836,0,30.533-13.697,30.533-30.533S402.603,196.489,385.767,196.489z M190.275,291.366l17.979,17.979
		l-17.979,17.979l-17.979-17.979L190.275,291.366z M255.02,291.365l17.979,17.979l-17.979,17.979l-17.979-17.979L255.02,291.365z
		 M287.393,424.442l-17.979-17.979l17.979-17.979l17.979,17.979L287.393,424.442z M222.647,424.442l-17.979-17.979l17.979-17.979
		l17.979,17.979L222.647,424.442z M162.868,383.518l27.407-27.407l17.979,17.979l-41.56,41.56L162.868,383.518z M237.042,374.09
		l17.979-17.979L273,374.09l-17.979,17.979L237.042,374.09z M301.787,374.09l17.979-17.979c0,0,28.712,28.625,29.182,28.957
		l-3.849,32.335L301.787,374.09z M287.393,359.697l-17.979-17.979l17.979-17.979l17.979,17.979L287.393,359.697z M240.626,341.718
		l-17.979,17.979l-17.979-17.979l17.979-17.979L240.626,341.718z M175.881,341.718l-16.075,16.075l-4.345-36.495L175.881,341.718z
		 M169.756,441.376l20.519-20.519l17.979,17.979l-12.097,12.097h-25.262L169.756,441.376z M255.02,420.857l17.979,17.979
		l-12.097,12.097h-35.957L255.02,420.857z M319.766,420.857l21.223,21.223c0.336,0.336,0.695,0.633,1.064,0.912l-0.945,7.941
		h-51.417L319.766,420.857z M334.16,341.718l18.052-18.052c1.162,0.885,2.469,1.486,3.831,1.803l-4.057,34.075L334.16,341.718z
		 M319.766,327.323l-17.979-17.979l17.979-17.979l17.979,17.979L319.766,327.323z M287.393,294.951l-17.979-17.979l19.416-19.416
		h35.958L287.393,294.951z M222.647,294.951l-17.979-17.979l19.24-19.24c0.057-0.057,0.105-0.119,0.16-0.177h35.974L222.647,294.951
		z M157.903,294.951l-6.332-6.332l-3.699-31.064h47.425L157.903,294.951z M339.967,481.467c0,5.612-4.566,10.178-10.178,10.178
		H182.211c-5.612,0-10.178-4.566-10.178-10.178v-10.178h167.933V481.467z M358.875,301.686l-24.715-24.715l19.417-19.417h10.551
		L358.875,301.686z M385.767,237.2H126.233c-5.612,0-10.178-4.566-10.178-10.178c0-5.612,4.566-10.178,10.178-10.178h259.533
		c5.612,0,10.178,4.566,10.178,10.178C395.944,232.634,391.379,237.2,385.767,237.2z"/>
</g>
<g>
</g>
<g>
</g>
<g>
</g>
<g>
</g>
<g>
</g>
<g>
</g>
<g>
</g>
<g>
</g>
<g>
</g>
<g>
</g>
<g>
</g>
<g>
</g>
<g>
</g>
<g>
</g>
<g>
</g>
</svg>
